<svg xmlns="http://www.w3.org/2000/svg" xmlns:xlink="http://www.w3.org/1999/xlink" zoomAndPan="magnify" preserveAspectRatio="xMidYMid meet" version="1.2" viewBox="30.42 114.76 317.68 111.33"><defs/><g id="3610b5b292"><g style="fill:#000000;fill-opacity:1;"><g transform="translate(27.390616, 224.123422)"><path style="stroke:none" d="M 37.296875 -69.578125 C 41.160156 -69.578125 44.976562 -69.132812 48.75 -68.25 C 52.53125 -67.375 55.34375 -66.5 57.1875 -65.625 L 59.953125 -64.296875 L 52.3125 -49.015625 C 47.039062 -51.828125 42.035156 -53.234375 37.296875 -53.234375 C 34.660156 -53.234375 32.789062 -52.945312 31.6875 -52.375 C 30.59375 -51.800781 30.046875 -50.726562 30.046875 -49.15625 C 30.046875 -48.800781 30.085938 -48.445312 30.171875 -48.09375 C 30.265625 -47.738281 30.441406 -47.40625 30.703125 -47.09375 C 30.960938 -46.789062 31.203125 -46.53125 31.421875 -46.3125 C 31.640625 -46.09375 32.015625 -45.851562 32.546875 -45.59375 C 33.078125 -45.332031 33.492188 -45.132812 33.796875 -45 C 34.109375 -44.863281 34.613281 -44.664062 35.3125 -44.40625 C 36.019531 -44.144531 36.546875 -43.945312 36.890625 -43.8125 C 37.242188 -43.675781 37.835938 -43.476562 38.671875 -43.21875 C 39.503906 -42.957031 40.140625 -42.78125 40.578125 -42.6875 C 43.304688 -41.894531 45.679688 -41.015625 47.703125 -40.046875 C 49.722656 -39.085938 51.851562 -37.769531 54.09375 -36.09375 C 56.332031 -34.425781 58.066406 -32.316406 59.296875 -29.765625 C 60.523438 -27.222656 61.140625 -24.328125 61.140625 -21.078125 C 61.140625 -5.710938 50.46875 1.96875 29.125 1.96875 C 24.289062 1.96875 19.695312 1.222656 15.34375 -0.265625 C 11 -1.753906 7.859375 -3.25 5.921875 -4.75 L 3.03125 -7.109375 L 12.515625 -23.0625 C 13.222656 -22.445312 14.144531 -21.722656 15.28125 -20.890625 C 16.425781 -20.054688 18.488281 -18.910156 21.46875 -17.453125 C 24.457031 -16.003906 27.050781 -15.28125 29.25 -15.28125 C 34.082031 -15.28125 36.5 -16.90625 36.5 -20.15625 C 36.5 -21.65625 35.882812 -22.820312 34.65625 -23.65625 C 33.425781 -24.488281 31.335938 -25.429688 28.390625 -26.484375 C 25.453125 -27.535156 23.148438 -28.503906 21.484375 -29.390625 C 17.265625 -31.578125 13.925781 -34.054688 11.46875 -36.828125 C 9.007812 -39.597656 7.78125 -43.265625 7.78125 -47.828125 C 7.78125 -54.679688 10.4375 -60.019531 15.75 -63.84375 C 21.0625 -67.664062 28.242188 -69.578125 37.296875 -69.578125 Z M 37.296875 -69.578125 "/></g></g><g style="fill:#000000;fill-opacity:1;"><g transform="translate(85.629711, 224.123422)"><path style="stroke:none" d="M 10.140625 -105.28125 C 12.867188 -108 16.117188 -109.359375 19.890625 -109.359375 C 23.671875 -109.359375 26.921875 -108 29.640625 -105.28125 C 32.367188 -102.5625 33.734375 -99.3125 33.734375 -95.53125 C 33.734375 -91.75 32.367188 -88.492188 29.640625 -85.765625 C 26.921875 -83.046875 23.671875 -81.6875 19.890625 -81.6875 C 16.117188 -81.6875 12.867188 -83.046875 10.140625 -85.765625 C 7.421875 -88.492188 6.0625 -91.75 6.0625 -95.53125 C 6.0625 -99.3125 7.421875 -102.5625 10.140625 -105.28125 Z M 7.90625 -67.59375 L 7.90625 0 L 31.234375 0 L 31.234375 -67.59375 Z M 7.90625 -67.59375 "/></g></g><g style="fill:#000000;fill-opacity:1;"><g transform="translate(118.833901, 224.123422)"><path style="stroke:none" d="M 11.859375 -67.59375 L 11.859375 -92.765625 L 35.1875 -92.765625 L 35.1875 -67.59375 L 49.40625 -67.59375 L 49.40625 -49.8125 L 35.1875 -49.8125 L 35.1875 -28.328125 C 35.1875 -22.085938 36.941406 -18.96875 40.453125 -18.96875 C 41.328125 -18.96875 42.25 -19.144531 43.21875 -19.5 C 44.1875 -19.851562 44.929688 -20.207031 45.453125 -20.5625 L 46.25 -21.078125 L 52.046875 -2.234375 C 47.035156 0.566406 41.328125 1.96875 34.921875 1.96875 C 30.523438 1.96875 26.742188 1.203125 23.578125 -0.328125 C 20.421875 -1.867188 18.03125 -3.929688 16.40625 -6.515625 C 14.78125 -9.109375 13.613281 -11.832031 12.90625 -14.6875 C 12.207031 -17.539062 11.859375 -20.59375 11.859375 -23.84375 L 11.859375 -49.8125 L 2.109375 -49.8125 L 2.109375 -67.59375 Z M 11.859375 -67.59375 "/></g></g><g style="fill:#000000;fill-opacity:1;"><g transform="translate(164.292026, 224.123422)"><path style="stroke:none" d="M 76.296875 -30.5625 L 27.28125 -30.5625 C 27.28125 -25.820312 28.816406 -22.3125 31.890625 -20.03125 C 34.960938 -17.75 38.300781 -16.609375 41.90625 -16.609375 C 45.675781 -16.609375 48.660156 -17.113281 50.859375 -18.125 C 53.054688 -19.132812 55.5625 -21.128906 58.375 -24.109375 L 75.234375 -15.6875 C 68.210938 -3.914062 56.53125 1.96875 40.1875 1.96875 C 30 1.96875 21.257812 -1.519531 13.96875 -8.5 C 6.675781 -15.476562 3.03125 -23.882812 3.03125 -33.71875 C 3.03125 -43.5625 6.675781 -52 13.96875 -59.03125 C 21.257812 -66.0625 30 -69.578125 40.1875 -69.578125 C 50.90625 -69.578125 59.625 -66.476562 66.34375 -60.28125 C 73.0625 -54.09375 76.421875 -45.242188 76.421875 -33.734375 C 76.421875 -32.148438 76.378906 -31.09375 76.296875 -30.5625 Z M 27.9375 -43.484375 L 53.625 -43.484375 C 53.101562 -46.992188 51.722656 -49.691406 49.484375 -51.578125 C 47.242188 -53.472656 44.363281 -54.421875 40.84375 -54.421875 C 36.976562 -54.421875 33.90625 -53.410156 31.625 -51.390625 C 29.34375 -49.367188 28.113281 -46.734375 27.9375 -43.484375 Z M 27.9375 -43.484375 "/></g></g><g style="fill:#000000;fill-opacity:1;"><g transform="translate(237.156772, 224.123422)"><path style="stroke:none" d="M 76.296875 -30.5625 L 27.28125 -30.5625 C 27.28125 -25.820312 28.816406 -22.3125 31.890625 -20.03125 C 34.960938 -17.75 38.300781 -16.609375 41.90625 -16.609375 C 45.675781 -16.609375 48.660156 -17.113281 50.859375 -18.125 C 53.054688 -19.132812 55.5625 -21.128906 58.375 -24.109375 L 75.234375 -15.6875 C 68.210938 -3.914062 56.53125 1.96875 40.1875 1.96875 C 30 1.96875 21.257812 -1.519531 13.96875 -8.5 C 6.675781 -15.476562 3.03125 -23.882812 3.03125 -33.71875 C 3.03125 -43.5625 6.675781 -52 13.96875 -59.03125 C 21.257812 -66.0625 30 -69.578125 40.1875 -69.578125 C 50.90625 -69.578125 59.625 -66.476562 66.34375 -60.28125 C 73.0625 -54.09375 76.421875 -45.242188 76.421875 -33.734375 C 76.421875 -32.148438 76.378906 -31.09375 76.296875 -30.5625 Z M 27.9375 -43.484375 L 53.625 -43.484375 C 53.101562 -46.992188 51.722656 -49.691406 49.484375 -51.578125 C 47.242188 -53.472656 44.363281 -54.421875 40.84375 -54.421875 C 36.976562 -54.421875 33.90625 -53.410156 31.625 -51.390625 C 29.34375 -49.367188 28.113281 -46.734375 27.9375 -43.484375 Z M 27.9375 -43.484375 "/></g></g><g style="fill:#000000;fill-opacity:1;"><g transform="translate(310.021503, 224.123422)"><path style="stroke:none" d="M 22.921875 -28.203125 C 27.140625 -28.203125 30.71875 -26.726562 33.65625 -23.78125 C 36.601562 -20.84375 38.078125 -17.265625 38.078125 -13.046875 C 38.078125 -8.921875 36.601562 -5.382812 33.65625 -2.4375 C 30.71875 0.5 27.140625 1.96875 22.921875 1.96875 C 18.796875 1.96875 15.257812 0.5 12.3125 -2.4375 C 9.375 -5.382812 7.90625 -8.921875 7.90625 -13.046875 C 7.90625 -17.265625 9.375 -20.84375 12.3125 -23.78125 C 15.257812 -26.726562 18.796875 -28.203125 22.921875 -28.203125 Z M 22.921875 -28.203125 "/></g></g></g></svg>